<svg width="15" height="15" viewBox="0 0 15 15" fill="none" xmlns="http://www.w3.org/2000/svg">
<path d="M13.3335 0.333496H1.30225C0.770996 0.333496 0.333496 0.802246 0.333496 1.36475V13.3335C0.333496 13.896 0.770996 14.3335 1.30225 14.3335H13.3335C13.8647 14.3335 14.3335 13.896 14.3335 13.3335V1.36475C14.3335 0.802246 13.8647 0.333496 13.3335 0.333496ZM4.55225 12.3335H2.48975V5.67725H4.55225V12.3335ZM3.521 4.73975C2.8335 4.73975 2.30225 4.2085 2.30225 3.55225C2.30225 2.896 2.8335 2.3335 3.521 2.3335C4.17725 2.3335 4.7085 2.896 4.7085 3.55225C4.7085 4.2085 4.17725 4.73975 3.521 4.73975ZM12.3335 12.3335H10.2397V9.0835C10.2397 8.3335 10.2397 7.3335 9.17725 7.3335C8.0835 7.3335 7.92725 8.17725 7.92725 9.05225V12.3335H5.86475V5.67725H7.8335V6.5835H7.86475C8.146 6.05225 8.8335 5.48975 9.8335 5.48975C11.9272 5.48975 12.3335 6.896 12.3335 8.67725V12.3335Z" fill="white"/>
</svg>
