<svg width="73" height="19" viewBox="0 0 73 19" fill="none" xmlns="http://www.w3.org/2000/svg">
<path d="M5.472 18V4.368H0.096V1.2H14.736V4.368H9.36V18H5.472ZM21.7594 18.192C20.2874 18.192 18.9914 17.904 17.8714 17.328C16.7674 16.752 15.9114 15.968 15.3034 14.976C14.6954 13.968 14.3914 12.824 14.3914 11.544C14.3914 10.248 14.6874 9.104 15.2794 8.112C15.8874 7.104 16.7114 6.32 17.7514 5.76C18.7914 5.184 19.9674 4.896 21.2794 4.896C22.5434 4.896 23.6794 5.168 24.6874 5.712C25.7114 6.24 26.5194 7.008 27.1114 8.016C27.7034 9.008 27.9994 10.2 27.9994 11.592C27.9994 11.736 27.9914 11.904 27.9754 12.096C27.9594 12.272 27.9434 12.44 27.9274 12.6H17.4394V10.416H25.9594L24.5194 11.064C24.5194 10.392 24.3834 9.808 24.1114 9.312C23.8394 8.816 23.4634 8.432 22.9834 8.16C22.5034 7.872 21.9434 7.728 21.3034 7.728C20.6634 7.728 20.0954 7.872 19.5994 8.16C19.1194 8.432 18.7434 8.824 18.4714 9.336C18.1994 9.832 18.0634 10.424 18.0634 11.112V11.688C18.0634 12.392 18.2154 13.016 18.5194 13.56C18.8394 14.088 19.2794 14.496 19.8394 14.784C20.4154 15.056 21.0874 15.192 21.8554 15.192C22.5434 15.192 23.1434 15.088 23.6554 14.88C24.1834 14.672 24.6634 14.36 25.0954 13.944L27.0874 16.104C26.4954 16.776 25.7514 17.296 24.8554 17.664C23.9594 18.016 22.9274 18.192 21.7594 18.192ZM36.8321 18.192C35.4401 18.192 34.2001 17.912 33.1121 17.352C32.0241 16.776 31.1681 15.984 30.5441 14.976C29.9361 13.968 29.6321 12.824 29.6321 11.544C29.6321 10.248 29.9361 9.104 30.5441 8.112C31.1681 7.104 32.0241 6.32 33.1121 5.76C34.2001 5.184 35.4401 4.896 36.8321 4.896C38.1921 4.896 39.3761 5.184 40.3841 5.76C41.3921 6.32 42.1361 7.128 42.6161 8.184L39.7121 9.744C39.3761 9.136 38.9521 8.688 38.4401 8.4C37.9441 8.112 37.4001 7.968 36.8081 7.968C36.1681 7.968 35.5921 8.112 35.0801 8.4C34.5681 8.688 34.1601 9.096 33.8561 9.624C33.5681 10.152 33.4241 10.792 33.4241 11.544C33.4241 12.296 33.5681 12.936 33.8561 13.464C34.1601 13.992 34.5681 14.4 35.0801 14.688C35.5921 14.976 36.1681 15.12 36.8081 15.12C37.4001 15.12 37.9441 14.984 38.4401 14.712C38.9521 14.424 39.3761 13.968 39.7121 13.344L42.6161 14.928C42.1361 15.968 41.3921 16.776 40.3841 17.352C39.3761 17.912 38.1921 18.192 36.8321 18.192ZM52.6494 4.896C53.6734 4.896 54.5854 5.104 55.3854 5.52C56.2014 5.92 56.8414 6.544 57.3054 7.392C57.7694 8.224 58.0014 9.296 58.0014 10.608V18H54.2574V11.184C54.2574 10.144 54.0254 9.376 53.5614 8.88C53.1134 8.384 52.4734 8.136 51.6414 8.136C51.0494 8.136 50.5134 8.264 50.0334 8.52C49.5694 8.76 49.2014 9.136 48.9294 9.648C48.6734 10.16 48.5454 10.816 48.5454 11.616V18H44.8014V0.191999H48.5454V8.664L47.7054 7.584C48.1694 6.72 48.8334 6.056 49.6974 5.592C50.5614 5.128 51.5454 4.896 52.6494 4.896ZM65.4072 15.144V4.056H68.5032V15.144H65.4072ZM61.2552 11.064V8.136H72.6792V11.064H61.2552Z" fill="#0667EE"/>
</svg>
