<svg width="17" height="14" viewBox="0 0 17 14" fill="none" xmlns="http://www.w3.org/2000/svg">
<path d="M14.6772 4.0835C15.3022 3.61475 15.8647 3.05225 16.3022 2.396C15.7397 2.646 15.0835 2.8335 14.4272 2.896C15.1147 2.48975 15.6147 1.86475 15.8647 1.0835C15.2397 1.4585 14.521 1.73975 13.8022 1.896C13.1772 1.23975 12.3335 0.864746 11.396 0.864746C9.5835 0.864746 8.11475 2.3335 8.11475 4.146C8.11475 4.396 8.146 4.646 8.2085 4.896C5.48975 4.73975 3.05225 3.42725 1.42725 1.4585C1.146 1.92725 0.989746 2.48975 0.989746 3.11475C0.989746 4.23975 1.55225 5.23975 2.4585 5.8335C1.92725 5.80225 1.396 5.67725 0.958496 5.42725V5.4585C0.958496 7.05225 2.0835 8.36475 3.5835 8.67725C3.3335 8.73975 3.021 8.80225 2.73975 8.80225C2.521 8.80225 2.3335 8.771 2.11475 8.73975C2.521 10.0522 3.73975 10.9897 5.17725 11.021C4.05225 11.896 2.646 12.4272 1.11475 12.4272C0.833496 12.4272 0.583496 12.396 0.333496 12.3647C1.771 13.3022 3.48975 13.8335 5.36475 13.8335C11.396 13.8335 14.6772 8.86475 14.6772 4.521C14.6772 4.36475 14.6772 4.23975 14.6772 4.0835Z" fill="white"/>
</svg>
